{"title":"Extreme Measures 1996 DVDRip XviD - deadbodyman (OSiOLEK.com)","uid":5879131,"size":1566112403,"categoryP":"video","categoryS":"movies","magnet":"?xt=urn:btih:19c2584cbbc2e485c1e7c39656a61f6e1b69fa4b&amp;dn=Extreme+Measures+1996+DVDRip+XviD+-+deadbodyman+%28OSiOLEK.com%29&amp;tr=udp%3A%2F%2Ftracker.openbittorrent.com%3A80&amp;tr=udp%3A%2F%2Fopen.demonii.com%3A1337&amp;tr=udp%3A%2F%2Ftracker.coppersurfer.tk%3A6969&amp;tr=udp%3A%2F%2Fexodus.desync.com%3A6969","seeders":0,"leechers":4,"uploader":"wildpig1234","files":2,"time":1286772907,"description":" &lt;a href=&quot;http://www.imdb.com/title/tt0116259/&quot; rel=&quot;nofollow&quot; target=&quot;_NEW&quot;&gt;http://www.imdb.com/title/tt0116259/&lt;/a&gt;\n\n\n\nThriller about Guy Luthan (Hugh Grant), a British doctor working at a hospital in New York who starts making unwanted enquiries when the body of a man who died in his emergency room disappears. The trail leads Luthan to the door of the eminent surgeon Dr Lawrence Myrick (Gene Hackman), but Luthan soon finds himself under in danger from people who want the hospital's secret to remain undiscovered.\n\n\n\n\nFormat                           : AVI\nFormat/Info                      : Audio Video Interleave\nFile size                        : 1.46 GiB\nDuration                         : 1h 58mn\nOverall bit rate                 : 1 768 Kbps\nWriting application              : VirtualDubMod 1.5.4.1 (build 2178/release)\nWriting library                  : VirtualDubMod build 2178/release\n\nVideo\nID                               : 0\nFormat                           : MPEG-4 Visual\nFormat profile                   : Advanced Simple@L5\nFormat settings, BVOP            : No\nFormat settings, QPel            : No\nFormat settings, GMC             : No warppoints\nFormat settings, Matrix          : Custom\nCodec ID                         : XVID\nCodec ID/Hint                    : XviD\nDuration                         : 1h 58mn\nBit rate                         : 1 569 Kbps\nWidth                            : 720 pixels\nHeight                           : 304 pixels\nDisplay aspect ratio             : 2.35:1\nFrame rate                       : 23.976 fps\nColor space                      : YUV\nChroma subsampling               : 4:2:0\nBit depth                        : 8 bits\nScan type                        : Progressive\nBits/(Pixel*Frame)               : 0.299\nStream size                      : 1.29 GiB (89%)\nWriting library                  : XviD 1.2.1 (UTC 2008-12-04)\n\nAudio\nID                               : 1\nFormat                           : AC-3\nFormat/Info                      : Audio Coding 3\nFormat profile                   : Dolby Digital\nMode extension                   : CM (complete main)\nCodec ID                         : 2000\nDuration                         : 1h 58mn\nBit rate mode                    : Constant\nBit rate                         : 192 Kbps\nChannel(s)                       : 2 channels\nChannel positions                : Front: L R\nSampling rate                    : 48.0 KHz\nBit depth                        : 16 bits\nVideo delay                      : 16ms\nStream size                      : 162 MiB (11%)\nAlignment                        : Split accross interleaves\nInterleave, duration             : 96 ms (2.30 video frames)\nInterleave, preload duration     : 96 ms\n\n","torrent":{"xt":"urn:btih:19c2584cbbc2e485c1e7c39656a61f6e1b69fa4b","amp;dn":"Extreme+Measures+1996+DVDRip+XviD+-+deadbodyman+%28OSiOLEK.com%29","amp;tr":["udp%3A%2F%2Ftracker.openbittorrent.com%3A80","udp%3A%2F%2Fopen.demonii.com%3A1337","udp%3A%2F%2Ftracker.coppersurfer.tk%3A6969","udp%3A%2F%2Fexodus.desync.com%3A6969"],"infoHash":"19c2584cbbc2e485c1e7c39656a61f6e1b69fa4b","infoHashBuffer":{"type":"Buffer","data":[25,194,88,76,187,194,228,133,193,231,195,150,86,166,31,110,27,105,250,75]},"announce":[],"urlList":[]}}